<svg width="59" height="14" viewBox="0 0 59 14" fill="none" xmlns="http://www.w3.org/2000/svg">
<rect x="47.5" y="2.5" width="10" height="8" stroke="#272343"/>
<line x1="0.25" y1="-0.25" x2="13.5646" y2="-0.25" transform="matrix(0.796262 0.604952 -0.0480509 0.998845 47 2.64285)" stroke="#272343" stroke-width="0.5" stroke-linecap="round"/>
<line x1="0.25" y1="-0.25" x2="13.5646" y2="-0.25" transform="matrix(0.796262 -0.604952 0.0480509 0.998845 47 11)" stroke="#272343" stroke-width="0.5" stroke-linecap="round"/>
<path d="M4.21875 3.6582V11H3.10547V3.6582H0.269531V2.74414H7.05469V3.6582H4.21875ZM9.19336 5.74414C9.41992 5.33008 9.69141 5.02734 10.0078 4.83594C10.3281 4.64062 10.7324 4.54297 11.2207 4.54297C11.9082 4.54297 12.4141 4.72266 12.7383 5.08203C13.0664 5.4375 13.2305 6.00195 13.2305 6.77539V11H12.1699V6.98047C12.1699 6.40625 12.0684 5.99219 11.8652 5.73828C11.666 5.48438 11.332 5.35742 10.8633 5.35742C10.3672 5.35742 9.96875 5.5293 9.66797 5.87305C9.37109 6.2168 9.22266 6.67969 9.22266 7.26172V11H8.16797V2.30469H9.22266V4.56641C9.22266 4.72266 9.21875 4.88867 9.21094 5.06445C9.20312 5.23633 9.19531 5.38672 9.1875 5.51562C9.18359 5.64062 9.17969 5.7168 9.17578 5.74414H9.19336ZM15.6328 8.05273C15.6328 8.7793 15.7832 9.33984 16.084 9.73438C16.3848 10.1289 16.8242 10.3262 17.4023 10.3262C17.8594 10.3262 18.2246 10.2344 18.498 10.0508C18.7754 9.86719 18.9629 9.63477 19.0605 9.35352L19.9863 9.61719C19.6074 10.6172 18.7461 11.1172 17.4023 11.1172C16.4648 11.1172 15.75 10.8379 15.2578 10.2793C14.7695 9.7207 14.5254 8.89062 14.5254 7.78906C14.5254 6.74219 14.7695 5.93945 15.2578 5.38086C15.75 4.82227 16.4512 4.54297 17.3613 4.54297C18.2949 4.54297 18.9941 4.82422 19.459 5.38672C19.9238 5.94922 20.1562 6.79102 20.1562 7.91211V8.05273H15.6328ZM19.0664 7.24414C19.0078 6.57617 18.8379 6.08984 18.5566 5.78516C18.2754 5.47656 17.8711 5.32227 17.3438 5.32227C16.832 5.32227 16.4258 5.49414 16.125 5.83789C15.8281 6.17773 15.668 6.64648 15.6445 7.24414H19.0664ZM24.9141 3.6582V11H23.8008V3.6582H20.9648V2.74414H27.75V3.6582H24.9141ZM29.4434 2.30469V3.3125H28.3887V2.30469H29.4434ZM29.4434 4.66016V11H28.3887V4.66016H29.4434ZM32.1387 7.32617V11H31.0898V6.01367C31.0898 5.64258 31.0859 5.3457 31.0781 5.12305C31.0742 4.89648 31.0664 4.74219 31.0547 4.66016H32.0508C32.0586 4.74609 32.0664 4.85156 32.0742 4.97656C32.082 5.10156 32.0879 5.23242 32.0918 5.36914C32.0957 5.50195 32.0977 5.62695 32.0977 5.74414H32.1152C32.3418 5.29492 32.6016 4.98242 32.8945 4.80664C33.1875 4.63086 33.5449 4.54297 33.9668 4.54297C34.4473 4.54297 34.8262 4.63867 35.1035 4.83008C35.3848 5.02148 35.5801 5.32617 35.6895 5.74414H35.707C35.9258 5.31836 36.1895 5.01172 36.498 4.82422C36.8105 4.63672 37.1875 4.54297 37.6289 4.54297C38.2695 4.54297 38.7344 4.7168 39.0234 5.06445C39.3164 5.41211 39.4629 5.98242 39.4629 6.77539V11H38.4199V6.98047C38.4199 6.36719 38.3359 5.94336 38.168 5.70898C38 5.47461 37.6973 5.35742 37.2598 5.35742C36.7988 5.35742 36.4395 5.5293 36.1816 5.87305C35.9277 6.21289 35.8008 6.69727 35.8008 7.32617V11H34.7578V6.98047C34.7578 6.36719 34.6738 5.94336 34.5059 5.70898C34.3379 5.47461 34.0352 5.35742 33.5977 5.35742C33.1484 5.35742 32.793 5.5293 32.5312 5.87305C32.2695 6.2168 32.1387 6.70117 32.1387 7.32617ZM41.8711 8.05273C41.8711 8.7793 42.0215 9.33984 42.3223 9.73438C42.623 10.1289 43.0625 10.3262 43.6406 10.3262C44.0977 10.3262 44.4629 10.2344 44.7363 10.0508C45.0137 9.86719 45.2012 9.63477 45.2988 9.35352L46.2246 9.61719C45.8457 10.6172 44.9844 11.1172 43.6406 11.1172C42.7031 11.1172 41.9883 10.8379 41.4961 10.2793C41.0078 9.7207 40.7637 8.89062 40.7637 7.78906C40.7637 6.74219 41.0078 5.93945 41.4961 5.38086C41.9883 4.82227 42.6895 4.54297 43.5996 4.54297C44.5332 4.54297 45.2324 4.82422 45.6973 5.38672C46.1621 5.94922 46.3945 6.79102 46.3945 7.91211V8.05273H41.8711ZM45.3047 7.24414C45.2461 6.57617 45.0762 6.08984 44.7949 5.78516C44.5137 5.47656 44.1094 5.32227 43.582 5.32227C43.0703 5.32227 42.6641 5.49414 42.3633 5.83789C42.0664 6.17773 41.9062 6.64648 41.8828 7.24414H45.3047Z" fill="#272343"/>
</svg>
